<svg width="20" height="20" viewBox="0 0 20 20" fill="none" xmlns="http://www.w3.org/2000/svg">
<g clip-path="url(#clip0_158_9302)">
<path d="M1 10C1 5.02944 5.02944 1 10 1C14.9706 1 19 5.02944 19 10C19 14.9706 14.9706 19 10 19C5.02944 19 1 14.9706 1 10Z" fill="#B0B0B0"/>
<path d="M18 10C18 5.58172 14.4183 1.99998 10 1.99998C5.58172 1.99998 1.99998 5.58172 1.99998 10C1.99998 14.4183 5.58172 18 10 18C14.4183 18 18 14.4183 18 10ZM20 10C20 15.5229 15.5229 20 10 20C4.47716 20 1.85551e-07 15.5229 0 10C0 4.47716 4.47716 0 10 0C15.5229 1.85648e-07 20 4.47716 20 10Z" fill="#B0B0B0"/>
<path d="M12.2929 6.29291C12.6834 5.90236 13.3166 5.90236 13.7071 6.29291C14.0976 6.68343 14.0976 7.31658 13.7071 7.70712L11.4142 10L13.7071 12.2929C14.0976 12.6834 14.0976 13.3166 13.7071 13.7071C13.3166 14.0976 12.6834 14.0976 12.2929 13.7071L10 11.4142L7.70712 13.7071C7.31658 14.0976 6.68343 14.0976 6.29291 13.7071C5.90236 13.3166 5.90236 12.6834 6.29291 12.2929L8.58579 10L6.29291 7.70712C5.90236 7.31658 5.90236 6.68343 6.29291 6.29291C6.68343 5.90236 7.31658 5.90236 7.70712 6.29291L10 8.58579L12.2929 6.29291Z" fill="white"/>
</g>
<defs>
<clipPath id="clip0_158_9302">
<rect width="20" height="20" fill="white"/>
</clipPath>
</defs>
</svg>
