<svg width="240" height="40" viewBox="0 0 240 40" fill="none" xmlns="http://www.w3.org/2000/svg">
<path d="M0 40L25 0L50 40H0Z" fill="#6D28FF"/>
<path d="M25 40L50 10L75 40H25Z" fill="#2DD4BF"/>
<path d="M32 24C35.3137 24 38 21.3137 38 18C38 14.6863 35.3137 12 32 12C28.6863 12 26 14.6863 26 18C26 21.3137 28.6863 24 32 24Z" fill="white"/>
<path d="M101.535 10.2031V30H96.3398V10.2031H101.535ZM121.25 10.2031V30H116.902L109.547 19.3086H109.41V30H104.215V10.2031H108.645L115.891 20.8398H116.055V10.2031H121.25ZM140.965 10.2031V30H136.617L129.262 19.3086H129.125V30H123.93V10.2031H128.359L135.605 20.8398H135.77V10.2031H140.965ZM143.645 30V10.2031H157.781V14.4141H148.84V17.9961H157.043V22.207H148.84V25.7891H157.754V30H143.645ZM160.516 30V10.2031H168.938C173.367 10.2031 176.266 12.7188 176.266 16.9023C176.266 19.6367 175.008 21.5781 172.875 22.5898L176.922 30H171.262L167.762 23.4102H165.711V30H160.516ZM165.711 19.3359H167.734C169.703 19.3359 170.824 18.625 170.824 16.9023C170.824 15.1523 169.703 14.3594 167.734 14.3594H165.711V19.3359ZM178.043 14.4141V10.2031H195.105V14.4141H189.145V30H184.004V14.4141H178.043ZM197.211 30V10.2031H205.633C210.062 10.2031 212.961 12.7188 212.961 16.9023C212.961 19.6367 211.703 21.5781 209.57 22.5898L213.617 30H207.957L204.457 23.4102H202.406V30H197.211ZM202.406 19.3359H204.43C206.398 19.3359 207.52 18.625 207.52 16.9023C207.52 15.1523 206.398 14.3594 204.43 14.3594H202.406V19.3359ZM220.508 10.2031V30H215.312V10.2031H220.508ZM223.188 30V10.2031H231.609C236.039 10.2031 238.938 12.9922 238.938 17.1484C238.938 21.3867 235.957 24.0391 231.445 24.0391H228.383V30H223.188ZM228.383 19.9922H230.406C232.375 19.9922 233.496 18.8984 233.496 17.1484C233.496 15.4258 232.375 14.3594 230.406 14.3594H228.383V19.9922Z" fill="#4C1D95"/>
</svg>
